# xmcd CD database file
#
# Track frame offsets:
#	150
#	16740
#	35632
#	58930
#	77389
#	91285
#	111069
#	125911
#	142411
#	160929
#	178924
#
# Disc length: 2643 seconds
#
# Revision: 0
# Processed by: cddbd v1.5.2PL0 Copyright (c) Steve Scherf et al.
# Submitted via: CDex 1.51
#
DISCID=980a510b
DTITLE=Taylor Mills - Lullagoodbye
DYEAR=2007
DGENRE=Blues
TTITLE0=Center of Your Heart
TTITLE1=Anything
TTITLE2=Hello Sun
TTITLE3=Genie In A Bottle
TTITLE4=Raven
TTITLE5=Consolation Prize
TTITLE6=Disappear
TTITLE7=Cradle Me
TTITLE8=Keep The Saints From Leaving
TTITLE9=New Year's Eve
TTITLE10=Wish Me Well
EXTD=YEAR: 2007
EXTT0=
EXTT1=
EXTT2=
EXTT3=
EXTT4=
EXTT5=
EXTT6=
EXTT7=
EXTT8=
EXTT9=
EXTT10=
PLAYORDER=
